<mxfile host="app.diagrams.net" modified="2023-09-19T14:44:00.315Z" agent="Mozilla/5.0 (Macintosh; Intel Mac OS X 10_15_7) AppleWebKit/537.36 (KHTML, like Gecko) Chrome/116.0.0.0 Safari/537.36" version="21.7.5" etag="DRvINPFr0usGCAfWfTEl" type="github">
  <diagram name="Page-1" id="QYZ2yNM6FXQA1lLY9QBc">
    <mxGraphModel>
      <root>
        <mxCell id="0" />
        <mxCell id="1" parent="0" />
      </root>
    </mxGraphModel>
  </diagram>
</mxfile>
